# xmcd
#
# Track frame offsets:
#	150
#	21512
#	41639
#	61601
#	83639
#	110375
#	132486
#	173249
#
# Disc length: 4614 seconds
#
# Revision: 0
# Processed by: cddbd v1.5PL3 Copyright (c) Steve Scherf et al.
# Submitted via: dBpowerAMP V4.0
#
DISCID=63120408
DTITLE=BlackBud - Mostly Live
DYEAR=2003
DGENRE=Blues
TTITLE0=Jackie D
TTITLE1=158
TTITLE2=Switch
TTITLE3=Do Ya' Know
TTITLE4=Strange Place
TTITLE5=Circles
TTITLE6=Silly
TTITLE7=DATA
EXTD=
EXTT0=
EXTT1=
EXTT2=
EXTT3=
EXTT4=
EXTT5=
EXTT6=
EXTT7=
PLAYORDER=
